<?xml version="1.0" encoding="utf-8"?>
<!-- Generator: Adobe Illustrator 21.0.0, SVG Export Plug-In . SVG Version: 6.00 Build 0)  -->
<svg version="1.1" id="Layer_1" xmlns="http://www.w3.org/2000/svg" xmlns:xlink="http://www.w3.org/1999/xlink" x="0px" y="0px"
	 viewBox="0 0 692 148" style="enable-background:new 0 0 692 148;" xml:space="preserve">
<style type="text/css">
	.st0{fill:#231F20;}
	.st1{fill:#FFFFFF;}
</style>
<g id="XMLID_93_">
	<g id="XMLID_94_">
		<path id="XMLID_106_" class="st0" d="M122.2,8c1.1,1.1,1.7,2.5,1.7,4.1v127c0,1.6-0.6,3-1.7,4.1c-1.1,1.1-2.5,1.7-4.1,1.7h-19
			c-1.6,0-3-0.6-4.1-1.7c-1.1-1.1-1.7-2.5-1.7-4.1V90.5H33.3v48.5c0,1.6-0.6,3-1.7,4.1c-1.1,1.1-2.5,1.7-4.1,1.7h-19
			c-1.6,0-3-0.6-4.1-1.7c-1.1-1.1-1.7-2.5-1.7-4.1v-127c0-1.6,0.6-3,1.7-4.1c1.1-1.1,2.5-1.7,4.1-1.7h19c1.6,0,3,0.6,4.1,1.7
			c1.1,1.1,1.7,2.5,1.7,4.1v48.5h60.1V12.1c0-1.6,0.6-3,1.7-4.1c1.1-1.1,2.5-1.7,4.1-1.7h19C119.7,6.3,121.1,6.9,122.2,8z"/>
		<path id="XMLID_104_" class="st0" d="M406.8,114.5c1.6,0,3,0.6,4.1,1.7c1.1,1.1,1.7,2.5,1.7,4.1v18.8c0,1.6-0.6,3-1.7,4.1
			c-1.1,1.1-2.5,1.7-4.1,1.7h-109c-1.7,0-3.2-0.6-4.4-1.8c-1.2-1.2-1.8-2.7-1.8-4.4V12.3c0-1.7,0.6-3.2,1.8-4.4
			c1.2-1.2,2.7-1.8,4.4-1.8H316c1.7,0,3.2,0.6,4.4,1.8c1.2,1.2,1.8,2.7,1.8,4.4v102.2h84.9H406.8z"/>
		<g id="XMLID_97_">
			<path id="XMLID_101_" class="st0" d="M207.9,2.9c10.8,0,20.7,1.9,29.7,5.6c9,3.7,16.8,8.8,23.4,15.3c6.6,6.5,11.7,14,15.4,22.8
				c3.7,8.7,5.5,18,5.5,27.9v0.4c0,9.9-1.8,19.1-5.5,27.9c-3.7,8.7-8.8,16.3-15.4,22.9c-6.6,6.5-14.4,11.7-23.4,15.5
				c-9,3.8-18.9,5.7-29.7,5.7c-10.8,0-20.7-1.9-29.7-5.6c-9-3.7-16.8-8.8-23.4-15.3c-6.6-6.5-11.7-14-15.4-22.8
				c-3.7-8.7-5.5-18-5.5-27.9v-0.4c0-9.8,1.8-19.1,5.5-27.9c3.7-8.7,8.8-16.3,15.4-22.9c6.6-6.5,14.4-11.7,23.4-15.5
				C187.2,4.8,197.1,2.9,207.9,2.9z M249.8,75.2c0-6-1-11.6-3.1-17c-2.1-5.3-5-10-8.7-14c-3.7-4-8.2-7.2-13.3-9.5
				c-5.1-2.3-10.8-3.5-16.9-3.5c-6.1,0-11.7,1.1-16.9,3.4c-5.1,2.3-9.6,5.4-13.3,9.3c-3.7,3.9-6.6,8.5-8.7,13.8
				c-2.1,5.3-3.1,10.9-3.1,16.9V75c0,6,1,11.6,3.1,16.8c2.1,5.2,5,9.7,8.7,13.6c3.7,3.9,8.2,6.9,13.3,9.1c5.1,2.2,10.8,3.3,16.9,3.3
				c6.1,0,11.7-1.1,16.9-3.3c5.1-2.2,9.5-5.2,13.3-9c3.7-3.8,6.6-8.3,8.7-13.4c2.1-5.1,3.1-10.7,3.1-16.7V75.2z"/>
			<path id="XMLID_98_" class="st0" d="M485.3,2.9c10.8,0,20.7,1.9,29.7,5.6c9,3.7,16.8,8.8,23.4,15.3c6.6,6.5,11.7,14,15.4,22.8
				c3.7,8.7,5.5,18,5.5,27.9v0.4c0,9.9-1.8,19.1-5.5,27.9c-3.7,8.7-8.8,16.3-15.4,22.9S524,137.2,515,141c-9,3.8-18.9,5.7-29.7,5.7
				c-10.8,0-20.7-1.9-29.7-5.6c-9-3.7-16.8-8.8-23.4-15.3c-6.6-6.5-11.7-14-15.4-22.8c-3.7-8.7-5.5-18-5.5-27.9v-0.4
				c0-9.8,1.8-19.1,5.5-27.9c3.7-8.7,8.8-16.3,15.4-22.9c6.6-6.5,14.4-11.7,23.4-15.5C464.7,4.8,474.5,2.9,485.3,2.9z M527.3,75.2
				c0-6-1-11.6-3.1-17c-2.1-5.3-5-10-8.7-14c-3.7-4-8.2-7.2-13.3-9.5c-5.1-2.3-10.7-3.5-16.9-3.5c-6.1,0-11.7,1.1-16.9,3.4
				c-5.1,2.3-9.6,5.4-13.3,9.3c-3.7,3.9-6.6,8.5-8.7,13.8c-2.1,5.3-3.1,10.9-3.1,16.9V75c0,6,1,11.6,3.1,16.8
				c2.1,5.2,5,9.7,8.7,13.6c3.7,3.9,8.2,6.9,13.3,9.1c5.1,2.2,10.7,3.3,16.9,3.3c6.1,0,11.7-1.1,16.9-3.3c5.1-2.2,9.6-5.2,13.3-9
				c3.7-3.8,6.6-8.3,8.7-13.4c2.1-5.1,3.1-10.7,3.1-16.7V75.2z"/>
		</g>
		<path id="XMLID_95_" class="st0" d="M689.6,7.4c1.1,1.1,1.7,2.5,1.7,4.1v129.8c0,2.5-1.1,4.3-3.3,5.3c-2.2,1-4.2,0.6-6.1-1.1
			L601.2,69v69.5c0,1.6-0.6,3-1.7,4.1c-1.1,1.1-2.5,1.7-4.1,1.7h-19c-1.6,0-3-0.6-4.1-1.7c-1.1-1.1-1.7-2.5-1.7-4.1V8.7
			c0-1.2,0.3-2.3,1-3.2c0.7-0.9,1.5-1.6,2.5-2c1-0.4,2-0.5,3.1-0.4c1.1,0.1,2.1,0.6,3,1.4L660.7,81V11.5c0-1.6,0.6-3,1.7-4.1
			c1.1-1.1,2.5-1.7,4.1-1.7h19C687.1,5.7,688.5,6.3,689.6,7.4z"/>
	</g>
</g>
</svg>
